#define Object_width 15
#define Object_height 15
static char Object_bits[] = {
  0x19, 0x60, 0x31, 0x20, 0x2B, 0x39, 0xEA, 0x0F, 0xCE, 0x03, 0xCF, 0x06, 
  0xCD, 0x0C, 0xF9, 0x1F, 0xF9, 0x30, 0xB1, 0x21, 0x98, 0x63, 0x88, 0x4F, 
  0x08, 0x19, 0x8C, 0x01, 0x84, 0x03, };
