#define player_width 8
#define player_height 15
static unsigned char player_bits[] = {
  0x08, 0x38, 0x38, 0x18, 0x08, 0x1B, 0xDB, 0x7A, 0x3E, 0x3C, 0x18, 0x7E, 
  0x7E, 0x62, 0xC3, };
