#define player_width 9
#define player_height 15
static unsigned char player_bits[] = {
  0x38, 0x00, 0x38, 0x00, 0x38, 0x00, 0x10, 0x00, 0x93, 0x01, 0xFF, 0x01, 
  0x7C, 0x00, 0x38, 0x00, 0x38, 0x00, 0x38, 0x00, 0x38, 0x00, 0x7C, 0x00, 
  0xC6, 0x00, 0x82, 0x00, 0x83, 0x01, };
