#define bottle_width 10
#define bottle_height 20
static unsigned char bottle_bits[] = {
   0xfc, 0x00, 0xfc, 0x00, 0x84, 0x00, 0xff, 0x03, 0x01, 0x02, 0x01, 0x02,
   0x01, 0x02, 0x01, 0x02, 0x01, 0x02, 0x31, 0x02, 0xb5, 0x02, 0xfd, 0x02,
   0x31, 0x02, 0x31, 0x02, 0x31, 0x02, 0x31, 0x02, 0x31, 0x02, 0x01, 0x02,
   0x01, 0x02, 0xff, 0x03 };
