#define coffee_width 15
#define coffee_height 13
static unsigned char coffee_bits[] = {
   0x48, 0x04, 0x84, 0x08, 0x8c, 0x08, 0x88, 0x04, 0x00, 0x00, 0xfe, 0x3f,
   0x02, 0x60, 0x02, 0x60, 0x02, 0x20, 0x04, 0x10, 0xff, 0x7f, 0x01, 0x40,
   0xfe, 0x3f };
