#define eye_width 13
#define eye_height 13
static unsigned char eye_bits[] = {
   0x40, 0x00, 0xe0, 0x00, 0x10, 0x01, 0x08, 0x02, 0x04, 0x04, 0x02, 0x08,
   0x42, 0x08, 0x02, 0x08, 0x04, 0x04, 0x08, 0x02, 0xf4, 0x05, 0x02, 0x08,
   0x01, 0x10 };
