#define mushroom_width 13
#define mushroom_height 10
static unsigned char mushroom_bits[] = {
   0xf8, 0x03, 0x0c, 0x06, 0x06, 0x0c, 0x03, 0x18, 0x01, 0x10, 0x03, 0x18,
   0xbe, 0x0f, 0xa0, 0x00, 0xa0, 0x00, 0xe0, 0x00 };
